<svg version="1.1" id="Layer_1" xmlns="http://www.w3.org/2000/svg" xmlns:xlink="http://www.w3.org/1999/xlink" x="0px" y="0px"
	 width="100%" viewBox="0 0 1024 1024" enable-background="new 0 0 1024 1024" xml:space="preserve">
<path fill="#000000" opacity="1.000000" stroke="none" 
	d="
M686.581177,681.664551 
	C655.022827,701.499695 620.733337,710.173035 584.067261,709.157776 
	C557.283447,708.416138 531.892883,702.153137 510.060303,685.663818 
	C485.454681,667.080322 472.732208,642.190186 472.917206,611.274414 
	C473.184845,566.545044 502.302582,530.082397 542.637451,518.770081 
	C549.763489,516.771545 557.044373,516.254333 564.396851,516.760376 
	C565.860535,516.861084 567.356262,517.286560 568.720764,517.846252 
	C570.622131,518.626099 572.283325,519.810730 572.237183,522.205933 
	C572.192200,524.542725 570.677979,525.825500 568.695496,526.553589 
	C565.417664,527.757385 562.103577,528.866211 558.784485,529.953308 
	C542.303894,535.351257 530.477234,546.297791 521.479004,560.803955 
	C508.298920,582.051575 502.812439,604.966125 508.070435,629.536560 
	C514.604797,660.071350 534.942444,678.778687 563.862000,687.233032 
	C615.062988,702.201050 685.032837,679.587646 707.662231,614.504700 
	C716.046326,590.391846 718.807495,565.407104 708.779602,540.758606 
	C701.935730,523.936401 691.068909,509.517365 680.135742,495.199249 
	C665.988159,476.671417 650.491760,459.097443 638.937439,438.714478 
	C625.329224,414.708221 621.129089,389.539520 630.823181,362.943665 
	C633.303162,356.139709 633.199524,356.256042 626.355896,355.239594 
	C599.550537,351.258301 572.587952,348.582214 545.672791,345.535736 
	C531.148743,343.891815 516.585449,342.793457 502.213928,339.837097 
	C497.217621,338.809296 492.979858,342.117615 489.341736,345.350342 
	C484.413574,349.729401 481.021179,355.242371 478.252991,361.208008 
	C465.138580,389.470154 453.737061,418.436249 442.504211,447.478607 
	C430.132874,479.464569 417.601776,511.388733 405.122528,543.332947 
	C395.432831,568.136353 385.526184,592.859863 377.044037,618.114014 
	C374.135498,626.773743 371.083740,635.424072 371.250458,644.787903 
	C371.402374,653.319763 375.767303,658.884521 384.162170,660.713379 
	C387.897491,661.527100 391.686890,662.093323 395.453644,662.761292 
	C399.275757,663.439148 402.434692,665.242249 401.969818,669.506226 
	C401.522858,673.605957 398.856415,675.607849 394.294952,675.553528 
	C375.483093,675.329834 356.667267,675.471008 337.853821,675.341309 
	C315.856201,675.189636 293.884308,676.052185 271.909180,676.808289 
	C267.717285,676.952515 264.488434,675.620239 263.860413,671.181641 
	C263.195770,666.484253 266.337189,664.490112 270.414490,664.124878 
	C278.365204,663.412659 286.355316,663.115601 294.005096,660.468933 
	C313.422546,653.750793 326.839935,640.985413 334.430847,621.733582 
	C347.011475,589.827026 359.920471,558.049011 372.836731,526.276001 
	C394.842865,472.142639 414.054565,416.910583 437.010925,363.154633 
	C440.474182,355.044830 444.553223,347.199097 448.295166,339.206757 
	C450.767731,333.925659 449.475952,331.521271 443.881348,330.330139 
	C408.595367,322.817261 372.985199,318.422516 336.863556,320.436096 
	C313.261292,321.751831 290.137207,325.851501 269.558075,338.438202 
	C248.422256,351.365479 236.352386,370.875702 235.816971,395.300507 
	C235.246750,421.313080 246.896332,442.691711 281.548126,445.626068 
	C286.016479,446.004456 290.541565,445.776947 295.039124,445.724487 
	C298.036469,445.689545 299.256927,447.238068 299.288269,450.028870 
	C299.315765,452.478485 299.013397,454.165802 295.905762,455.112061 
	C284.423187,458.608368 272.878204,458.351135 261.439423,455.842621 
	C237.501633,450.593048 221.656830,431.735138 218.665085,405.972565 
	C214.786911,372.577087 228.381653,346.603394 253.209366,325.772430 
	C274.746887,307.701996 300.269745,298.515137 327.834900,294.681091 
	C357.611420,290.539459 387.176544,292.905426 416.760071,297.364441 
	C477.409637,306.505798 537.458923,318.755524 597.449646,331.356110 
	C610.304199,334.056152 623.194336,336.592926 636.016907,339.435699 
	C640.077881,340.336029 642.559998,339.576752 645.093872,335.898773 
	C663.857422,308.662964 689.398804,291.547852 722.208496,286.190582 
	C743.422363,282.726715 764.213318,283.880432 782.624268,296.628387 
	C804.630737,311.865906 805.648193,338.629059 785.303650,356.127075 
	C772.891602,366.802429 758.309021,371.552643 742.210327,372.315460 
	C723.249023,373.213867 704.836304,369.260132 686.353149,365.943848 
	C683.247131,365.386536 679.985229,365.254303 677.068787,364.181976 
	C671.881409,362.274750 669.663696,364.671234 668.378845,369.157043 
	C664.265076,383.519501 667.017700,397.229645 672.823425,410.436707 
	C680.682556,428.314941 692.844727,443.373474 705.027588,458.414948 
	C715.928589,471.873657 726.792908,485.374786 735.591370,500.387756 
	C758.390686,539.290710 759.424072,579.125854 740.872314,619.832520 
	C729.048889,645.775879 709.998535,665.403625 686.581177,681.664551 
M677.608093,345.711456 
	C677.552246,348.345917 679.651550,348.381134 681.378662,348.761810 
	C687.056580,350.013397 692.732727,351.279510 698.434875,352.412659 
	C713.259521,355.358551 728.019165,358.854797 743.330139,357.822693 
	C753.043396,357.167969 761.523071,353.577881 768.224731,346.569244 
	C780.839783,333.376312 778.318787,319.309448 764.921082,309.424713 
	C757.285889,303.791473 748.185364,301.910339 738.863525,302.550720 
	C710.129700,304.524597 690.107361,319.276367 677.608093,345.711456 
z"/>
</svg>